<svg width="19" height="16" viewBox="0 0 14 16" fill="none" xmlns="http://www.w3.org/2000/svg">
<path d="M12.5 7H11.75V4.75C11.75 3.49022 11.2496 2.28204 10.3588 1.39124C9.46796 0.500445 8.25978 0 7 0C5.74022 0 4.53204 0.500445 3.64124 1.39124C2.75044 2.28204 2.25 3.49022 2.25 4.75V7H1.5C1.10218 7 0.720644 7.15804 0.43934 7.43934C0.158035 7.72064 0 8.10218 0 8.5L0 14.5C0 14.8978 0.158035 15.2794 0.43934 15.5607C0.720644 15.842 1.10218 16 1.5 16H12.5C12.8978 16 13.2794 15.842 13.5607 15.5607C13.842 15.2794 14 14.8978 14 14.5V8.5C14 8.10218 13.842 7.72064 13.5607 7.43934C13.2794 7.15804 12.8978 7 12.5 7ZM9.25 7H4.75V4.75C4.75 4.15326 4.98705 3.58097 5.40901 3.15901C5.83097 2.73705 6.40326 2.5 7 2.5C7.59674 2.5 8.16903 2.73705 8.59099 3.15901C9.01295 3.58097 9.25 4.15326 9.25 4.75V7Z" fill="#333333"/>
</svg>
