<?xml version="1.0" standalone="no"?>
<!DOCTYPE svg PUBLIC "-//W3C//DTD SVG 20010904//EN"
 "http://www.w3.org/TR/2001/REC-SVG-20010904/DTD/svg10.dtd">
<svg version="1.0" xmlns="http://www.w3.org/2000/svg"
 width="225.000000pt" height="223.000000pt" viewBox="0 0 225.000000 223.000000"
 preserveAspectRatio="xMidYMid meet">

<g transform="translate(0.000000,223.000000) scale(0.100000,-0.100000)"
fill="#000000" stroke="none">
<path d="M5 1040 c0 -575 1 -810 2 -522 2 287 2 757 0 1045 -1 287 -2 52 -2
-523z"/>
<path d="M362 2053 c-85 -59 -159 -175 -188 -300 -24 -103 -15 -291 20 -408
70 -231 212 -453 442 -687 284 -291 561 -461 834 -512 219 -42 432 9 560 134
66 64 93 125 93 210 1 102 -23 144 -166 286 -142 142 -180 164 -285 164 -93
-1 -140 -25 -243 -126 -48 -46 -95 -84 -105 -84 -10 0 -132 114 -291 272 -208
207 -273 278 -273 297 0 17 27 52 89 116 77 80 92 101 107 151 20 71 14 144
-16 205 -27 53 -207 240 -269 280 -43 28 -51 29 -156 29 -106 0 -114 -2 -153
-27z m222 -25 c57 -17 269 -222 302 -293 28 -59 31 -132 8 -178 -9 -18 -57
-73 -105 -124 -87 -90 -89 -93 -89 -140 l0 -48 283 -282 c184 -184 292 -284
310 -288 48 -12 79 5 166 90 122 118 173 138 271 109 46 -14 69 -31 173 -132
138 -136 161 -172 162 -257 0 -72 -31 -132 -94 -183 -178 -143 -453 -148 -739
-12 -186 89 -350 208 -527 386 -315 314 -484 634 -487 917 -1 108 13 179 54
263 71 147 184 209 312 172z"/>
</g>
</svg>
