<svg width="19" height="24" viewBox="0 0 19 24" fill="none" xmlns="http://www.w3.org/2000/svg">
<path d="M19 21.326C19.0274 18.4688 18.0744 15.6886 16.3 13.449C15.529 12.4774 14.5484 11.6925 13.4316 11.153C12.3147 10.6135 11.0904 10.3333 9.85 10.3333C8.60964 10.3333 7.3853 10.6135 6.26842 11.153C5.15155 11.6925 4.171 12.4774 3.39999 13.449C1.62728 15.6861 0.67439 18.4629 0.699996 21.317C3.5488 22.7391 6.66909 23.5346 9.851 23.65C13.0406 23.6027 16.1745 22.8067 19 21.326Z" fill="#A0A0A0"/>
<path d="M9.848 9.50301C12.3753 9.50301 14.424 7.45427 14.424 4.92701C14.424 2.39976 12.3753 0.351013 9.848 0.351013C7.32074 0.351013 5.272 2.39976 5.272 4.92701C5.272 7.45427 7.32074 9.50301 9.848 9.50301Z" fill="#A0A0A0"/>
</svg>
